<svg width="130" height="90" viewBox="0 0 130 90" fill="none" xmlns="http://www.w3.org/2000/svg">
<g clip-path="url(#clip0_53_33)">
<path d="M0 67.5V62.5312C0 60.1208 1.87326 58.1588 5.61979 56.6452C9.36632 55.1318 14.2809 54.375 20.3634 54.375C21.4616 54.375 22.5177 54.3906 23.5315 54.4219C24.5452 54.4531 25.5486 54.5204 26.5417 54.6236C25.8194 55.7079 25.2778 56.8068 24.9167 57.9203C24.5556 59.0339 24.375 60.1959 24.375 61.4062V67.5H0ZM32.5 67.5V61.4062C32.5 59.4062 33.2899 57.5781 34.8698 55.9219C36.4497 54.2656 38.684 52.8125 41.5729 51.5625C44.4618 50.3125 47.9149 49.375 51.9323 48.75C55.9497 48.125 60.3056 47.8125 65 47.8125C69.7847 47.8125 74.1858 48.125 78.2031 48.75C82.2205 49.375 85.6736 50.3125 88.5625 51.5625C91.4514 52.8125 93.6632 54.2656 95.1979 55.9219C96.7326 57.5781 97.5 59.4062 97.5 61.4062V67.5H32.5ZM105.625 67.5V61.4062C105.625 60.1649 105.467 58.9952 105.151 57.8971C104.835 56.799 104.316 55.7102 103.594 54.6307C104.587 54.5227 105.588 54.4531 106.596 54.4219C107.605 54.3906 108.635 54.375 109.688 54.375C115.781 54.375 120.69 55.1178 124.414 56.6032C128.138 58.0887 130 60.0648 130 62.5312V67.5H105.625ZM40.625 61.875H89.375V61.3125C89.375 59 87.0955 57.1094 82.5365 55.6406C77.9774 54.1719 72.132 53.4375 65 53.4375C57.8681 53.4375 52.0226 54.1719 47.4635 55.6406C42.9045 57.1094 40.625 59.0312 40.625 61.4062V61.875ZM20.2539 51.5625C17.6749 51.5625 15.4601 50.9199 13.6094 49.6348C11.7587 48.3496 10.8333 46.8047 10.8333 45C10.8333 43.1875 11.7615 41.6406 13.6178 40.3594C15.4742 39.0781 17.7057 38.4375 20.3125 38.4375C22.9306 38.4375 25.1649 39.0781 27.0156 40.3594C28.8663 41.6406 29.7917 43.201 29.7917 45.0406C29.7917 46.826 28.8663 48.3594 27.0156 49.6406C25.1649 50.9219 22.911 51.5625 20.2539 51.5625ZM109.629 51.5625C107.05 51.5625 104.835 50.9199 102.984 49.6348C101.134 48.3496 100.208 46.8047 100.208 45C100.208 43.1875 101.136 41.6406 102.993 40.3594C104.849 39.0781 107.081 38.4375 109.688 38.4375C112.306 38.4375 114.54 39.0781 116.391 40.3594C118.241 41.6406 119.167 43.201 119.167 45.0406C119.167 46.826 118.241 48.3594 116.391 49.6406C114.54 50.9219 112.286 51.5625 109.629 51.5625ZM65 45C60.4861 45 56.6493 43.9062 53.4896 41.7188C50.3299 39.5312 48.75 36.875 48.75 33.75C48.75 30.5625 50.3299 27.8906 53.4896 25.7344C56.6493 23.5781 60.4861 22.5 65 22.5C69.6042 22.5 73.4635 23.5781 76.5781 25.7344C79.6927 27.8906 81.25 30.5625 81.25 33.75C81.25 36.875 79.6927 39.5312 76.5781 41.7188C73.4635 43.9062 69.6042 45 65 45ZM65.0475 39.375C67.3631 39.375 69.2882 38.8328 70.8229 37.7483C72.3576 36.6639 73.125 35.3202 73.125 33.7171C73.125 32.114 72.3509 30.7812 70.8027 29.7188C69.2546 28.6562 67.3362 28.125 65.0475 28.125C62.7589 28.125 60.8247 28.6609 59.2448 29.7327C57.6649 30.8045 56.875 32.1327 56.875 33.7171C56.875 35.3015 57.6582 36.6406 59.2246 37.7344C60.791 38.8281 62.732 39.375 65.0475 39.375Z" fill="black"/>
</g>
<defs>
<clipPath id="clip0_53_33">
<rect width="130" height="90" fill="white"/>
</clipPath>
</defs>
</svg>
