<svg width="31" height="24" viewBox="0 0 31 24" fill="none" xmlns="http://www.w3.org/2000/svg">
<path d="M13.154 0.0287748C5.90049 0.0287748 0 4.54642 0 10.1C0 15.6535 5.90049 20.1712 13.154 20.1712C15.3713 20.1712 17.5511 19.7683 19.3927 18.9914C19.5402 19.1273 19.7037 19.2525 19.8813 19.3655L23.6395 22.2429C23.9866 22.5419 24.4097 22.7834 24.8831 22.9526C25.3564 23.1219 25.87 23.2152 26.3921 23.227C26.9143 23.2388 27.4341 23.1687 27.9197 23.0211C28.4052 22.8735 28.8462 22.6514 29.2156 22.3686C29.585 22.0858 29.875 21.7481 30.0678 21.3764C30.2606 21.0047 30.3521 20.6067 30.3367 20.2069C30.3213 19.8071 30.1994 19.4139 29.9784 19.0515C29.7574 18.6891 29.4419 18.3651 29.0514 18.0994L25.2932 15.2219C25.1101 15.0817 24.9086 14.9563 24.6919 14.8478C25.7066 13.4378 26.3455 11.7977 26.3455 10.0712C26.3455 4.51765 20.445 0 13.1915 0L13.154 0.0287748ZM13.154 2.90626C18.378 2.90626 22.5496 6.10026 22.5496 10.1C22.5496 11.9991 21.6477 13.7544 20.0692 15.0492C20.0316 15.078 19.994 15.1068 19.9564 15.1356C19.7789 15.2485 19.6154 15.3737 19.4679 15.5096C17.8142 16.6606 15.5592 17.3225 13.1164 17.3225C7.89237 17.3225 3.72069 14.1284 3.72069 10.1287C3.72069 6.12904 7.89237 2.93503 13.1164 2.93503L13.154 2.90626Z" fill="#DBDBDB"/>
</svg>
