<svg width="253" height="36" viewBox="0 0 253 36" fill="none" xmlns="http://www.w3.org/2000/svg">
<path d="M11.06 25.308C12.164 25.308 13.112 25.152 13.904 24.84C14.696 24.528 15.308 24.036 15.74 23.364C16.196 22.692 16.424 21.828 16.424 20.772C16.424 19.836 16.22 19.056 15.812 18.432C15.428 17.808 14.912 17.304 14.264 16.92C13.616 16.512 12.872 16.176 12.032 15.912C11.192 15.624 10.328 15.36 9.44 15.12C8.48 14.856 7.532 14.556 6.596 14.22C5.66 13.86 4.808 13.404 4.04 12.852C3.272 12.3 2.66 11.616 2.204 10.8C1.772 9.96 1.556 8.904 1.556 7.632C1.556 6.288 1.892 5.136 2.564 4.176C3.26 3.192 4.172 2.436 5.3 1.908C6.452 1.356 7.712 1.08 9.08 1.08C10.208 1.08 11.252 1.248 12.212 1.584C13.172 1.896 14.048 2.436 14.84 3.204C15.632 3.972 16.304 5.04 16.856 6.408L15.56 6.444L16.064 1.44H18.044V8.136H15.848C15.488 7.08 14.996 6.18 14.372 5.436C13.748 4.692 13.004 4.116 12.14 3.708C11.3 3.3 10.388 3.096 9.404 3.096C8.372 3.096 7.484 3.264 6.74 3.6C6.02 3.936 5.468 4.416 5.084 5.04C4.7 5.664 4.508 6.408 4.508 7.272C4.508 8.112 4.7 8.808 5.084 9.36C5.468 9.888 5.984 10.344 6.632 10.728C7.28 11.088 8.024 11.4 8.864 11.664C9.704 11.904 10.568 12.144 11.456 12.384C12.464 12.648 13.448 12.96 14.408 13.32C15.368 13.656 16.232 14.1 17 14.652C17.792 15.204 18.416 15.912 18.872 16.776C19.328 17.64 19.556 18.72 19.556 20.016C19.556 21.576 19.172 22.908 18.404 24.012C17.636 25.116 16.616 25.956 15.344 26.532C14.096 27.084 12.716 27.36 11.204 27.36C9.836 27.36 8.516 27.144 7.244 26.712C5.996 26.256 4.892 25.56 3.932 24.624C2.972 23.664 2.228 22.392 1.7 20.808L3.284 21.096L2.744 27H0.656V19.08H2.852C3.26 20.304 3.848 21.396 4.616 22.356C5.408 23.292 6.344 24.024 7.424 24.552C8.528 25.056 9.74 25.308 11.06 25.308ZM43.1771 27H33.9971V25.452H34.1051C34.4171 25.452 34.7651 25.44 35.1491 25.416C35.5571 25.392 35.9051 25.356 36.1931 25.308C36.4811 25.236 36.6251 25.164 36.6251 25.092L29.7851 17.316V17.136L36.3731 10.908C36.3731 10.716 36.2051 10.572 35.8691 10.476C35.5571 10.38 35.1731 10.32 34.7171 10.296C34.2851 10.248 33.8891 10.224 33.5291 10.224H33.3131V8.676H42.0611V10.224H41.9891C41.5331 10.224 41.0651 10.284 40.5851 10.404C40.1291 10.524 39.6731 10.716 39.2171 10.98C38.7851 11.22 38.3531 11.544 37.9211 11.952L32.2691 17.352L32.3771 15.84L39.7211 24.084C40.0811 24.468 40.4411 24.756 40.8011 24.948C41.1611 25.14 41.5331 25.272 41.9171 25.344C42.3251 25.416 42.7331 25.452 43.1411 25.452H43.1771V27ZM28.8851 0.467998V25.092C28.8851 25.164 29.0291 25.236 29.3171 25.308C29.6051 25.356 29.9531 25.392 30.3611 25.416C30.7691 25.44 31.1411 25.452 31.4771 25.452H31.5491V27H22.6571V25.452H22.7291C23.5931 25.452 24.3011 25.368 24.8531 25.2C25.4051 25.032 25.6811 24.684 25.6811 24.156V3.744C25.6811 3.384 25.5851 3.108 25.3931 2.916C25.2011 2.724 24.9131 2.568 24.5291 2.448C24.1451 2.328 23.6411 2.22 23.0171 2.124L22.6211 2.052V0.467998H28.8851ZM50.5621 8.676V21.204C50.5621 22.116 50.6581 22.872 50.8501 23.472C51.0421 24.072 51.3661 24.516 51.8221 24.804C52.2781 25.068 52.8781 25.2 53.6221 25.2C54.4141 25.2 55.1581 25.044 55.8541 24.732C56.5501 24.42 57.2101 23.952 57.8341 23.328C58.4821 22.704 59.0821 21.936 59.6341 21.024L59.7061 23.328C59.0821 24.216 58.4341 24.96 57.7621 25.56C57.1141 26.136 56.4061 26.58 55.6381 26.892C54.8701 27.204 54.0061 27.36 53.0461 27.36C51.9181 27.36 50.9221 27.156 50.0581 26.748C49.2181 26.34 48.5581 25.704 48.0781 24.84C47.5981 23.976 47.3581 22.884 47.3581 21.564V11.952C47.3581 11.424 47.1421 11.064 46.7101 10.872C46.3021 10.656 45.6421 10.476 44.7301 10.332L44.2981 10.26V8.676H50.5621ZM62.1901 8.676V24.156C62.1901 24.492 62.3221 24.756 62.5861 24.948C62.8501 25.14 63.1981 25.272 63.6301 25.344C64.0861 25.416 64.6021 25.452 65.1781 25.452H65.2861V27H59.3101V23.256L58.9861 22.824V11.952C58.9861 11.424 58.7701 11.052 58.3381 10.836C57.9061 10.62 57.2221 10.464 56.2861 10.368L55.4941 10.26V8.676H62.1901ZM67.3047 27V25.452H67.3767C67.9527 25.452 68.4567 25.416 68.8887 25.344C69.3447 25.272 69.6927 25.14 69.9327 24.948C70.1967 24.756 70.3287 24.492 70.3287 24.156V11.952C70.3287 11.592 70.2327 11.328 70.0407 11.16C69.8487 10.968 69.5487 10.812 69.1407 10.692C68.7567 10.572 68.2647 10.452 67.6647 10.332L67.3047 10.26V8.676H73.2087V12.492L73.5327 12.852V25.092C73.5327 25.164 73.6647 25.236 73.9287 25.308C74.2167 25.356 74.5647 25.392 74.9727 25.416C75.3807 25.44 75.7647 25.452 76.1247 25.452H76.1967V27H67.3047ZM88.2927 27H79.4367V25.452H79.4727C79.8087 25.452 80.1807 25.44 80.5887 25.416C80.9967 25.392 81.3447 25.356 81.6327 25.308C81.9447 25.236 82.1007 25.164 82.1007 25.092V14.436C82.1007 13.5 82.0047 12.744 81.8127 12.168C81.6207 11.568 81.2967 11.136 80.8407 10.872C80.3847 10.584 79.7847 10.44 79.0407 10.44C78.2247 10.44 77.4567 10.608 76.7367 10.944C76.0167 11.256 75.3447 11.724 74.7207 12.348C74.0967 12.972 73.4847 13.752 72.8847 14.688L72.8127 12.456C73.4847 11.52 74.1447 10.752 74.7927 10.152C75.4647 9.528 76.1847 9.072 76.9527 8.784C77.7447 8.472 78.6327 8.316 79.6167 8.316C80.7687 8.316 81.7647 8.52 82.6047 8.928C83.4687 9.336 84.1287 9.972 84.5847 10.836C85.0647 11.676 85.3047 12.768 85.3047 14.112V24.156C85.3047 24.492 85.4247 24.756 85.6647 24.948C85.9287 25.14 86.2767 25.272 86.7087 25.344C87.1647 25.416 87.6807 25.452 88.2567 25.452H88.2927V27ZM101.466 27.36C100.506 27.36 99.6301 27.216 98.8381 26.928C98.0701 26.616 97.3621 26.16 96.7141 25.56C96.0661 24.96 95.4301 24.168 94.8061 23.184L94.9141 20.412C95.4661 21.54 96.0661 22.476 96.7141 23.22C97.3621 23.94 98.0701 24.492 98.8381 24.876C99.6301 25.236 100.47 25.416 101.358 25.416C102.246 25.416 103.014 25.236 103.662 24.876C104.334 24.492 104.898 23.964 105.354 23.292C105.81 22.596 106.146 21.78 106.362 20.844C106.602 19.908 106.722 18.864 106.722 17.712C106.722 16.584 106.602 15.564 106.362 14.652C106.146 13.716 105.81 12.924 105.354 12.276C104.922 11.628 104.382 11.136 103.734 10.8C103.11 10.44 102.378 10.26 101.538 10.26C100.578 10.26 99.6901 10.464 98.8741 10.872C98.0821 11.28 97.3621 11.88 96.7141 12.672C96.0661 13.44 95.4661 14.4 94.9141 15.552L94.8421 12.888C95.4901 11.88 96.1501 11.04 96.8221 10.368C97.4941 9.672 98.2261 9.156 99.0181 8.82C99.8101 8.484 100.734 8.316 101.79 8.316C103.422 8.316 104.862 8.712 106.11 9.504C107.382 10.272 108.366 11.364 109.062 12.78C109.758 14.172 110.106 15.816 110.106 17.712C110.106 19.608 109.746 21.288 109.026 22.752C108.306 24.192 107.298 25.32 106.002 26.136C104.706 26.952 103.194 27.36 101.466 27.36ZM92.3941 3.744C92.3941 3.384 92.2981 3.108 92.1061 2.916C91.9141 2.724 91.6261 2.568 91.2421 2.448C90.8581 2.328 90.3541 2.22 89.7301 2.124L89.3341 2.052V0.467998H95.5981V22.752L95.2381 23.184L94.4461 27.144H92.3941V3.744ZM122.96 25.308L122.492 26.676L120.764 27.576L113.96 11.448C113.816 11.112 113.624 10.86 113.384 10.692C113.144 10.524 112.844 10.404 112.484 10.332C112.148 10.26 111.74 10.224 111.26 10.224H111.224V8.676H120.116V10.224H120.044C119.588 10.224 119.108 10.236 118.604 10.26C118.124 10.284 117.716 10.32 117.38 10.368C117.068 10.392 116.912 10.452 116.912 10.548L122.96 25.308ZM123.248 26.388C122.6 27.948 121.952 29.292 121.304 30.42C120.656 31.572 119.996 32.508 119.324 33.228C118.652 33.948 117.932 34.476 117.164 34.812C116.396 35.172 115.568 35.352 114.68 35.352C114.08 35.352 113.576 35.28 113.168 35.136C112.76 35.016 112.436 34.872 112.196 34.704V31.824C112.268 31.848 112.412 31.908 112.628 32.004C112.868 32.124 113.168 32.232 113.528 32.328C113.888 32.424 114.284 32.472 114.716 32.472C115.268 32.472 115.82 32.376 116.372 32.184C116.948 32.016 117.524 31.68 118.1 31.176C118.676 30.672 119.252 29.928 119.828 28.944C120.428 27.96 121.028 26.676 121.628 25.092L121.916 24.408L127.316 11.052C127.316 10.86 127.172 10.716 126.884 10.62C126.596 10.5 126.224 10.404 125.768 10.332C125.336 10.26 124.88 10.224 124.4 10.224H124.292V8.676H131.924V10.224H131.888C131.528 10.224 131.18 10.272 130.844 10.368C130.508 10.44 130.196 10.596 129.908 10.836C129.644 11.052 129.416 11.388 129.224 11.844L123.248 26.388ZM144.197 25.308C145.301 25.308 146.249 25.152 147.041 24.84C147.833 24.528 148.445 24.036 148.877 23.364C149.333 22.692 149.561 21.828 149.561 20.772C149.561 19.836 149.357 19.056 148.949 18.432C148.565 17.808 148.049 17.304 147.401 16.92C146.753 16.512 146.009 16.176 145.169 15.912C144.329 15.624 143.465 15.36 142.577 15.12C141.617 14.856 140.669 14.556 139.733 14.22C138.797 13.86 137.945 13.404 137.177 12.852C136.409 12.3 135.797 11.616 135.341 10.8C134.909 9.96 134.693 8.904 134.693 7.632C134.693 6.288 135.029 5.136 135.701 4.176C136.397 3.192 137.309 2.436 138.437 1.908C139.589 1.356 140.849 1.08 142.217 1.08C143.345 1.08 144.389 1.248 145.349 1.584C146.309 1.896 147.185 2.436 147.977 3.204C148.769 3.972 149.441 5.04 149.993 6.408L148.697 6.444L149.201 1.44H151.181V8.136H148.985C148.625 7.08 148.133 6.18 147.509 5.436C146.885 4.692 146.141 4.116 145.277 3.708C144.437 3.3 143.525 3.096 142.541 3.096C141.509 3.096 140.621 3.264 139.877 3.6C139.157 3.936 138.605 4.416 138.221 5.04C137.837 5.664 137.645 6.408 137.645 7.272C137.645 8.112 137.837 8.808 138.221 9.36C138.605 9.888 139.121 10.344 139.769 10.728C140.417 11.088 141.161 11.4 142.001 11.664C142.841 11.904 143.705 12.144 144.593 12.384C145.601 12.648 146.585 12.96 147.545 13.32C148.505 13.656 149.369 14.1 150.137 14.652C150.929 15.204 151.553 15.912 152.009 16.776C152.465 17.64 152.693 18.72 152.693 20.016C152.693 21.576 152.309 22.908 151.541 24.012C150.773 25.116 149.753 25.956 148.481 26.532C147.233 27.084 145.853 27.36 144.341 27.36C142.973 27.36 141.653 27.144 140.381 26.712C139.133 26.256 138.029 25.56 137.069 24.624C136.109 23.664 135.365 22.392 134.837 20.808L136.421 21.096L135.881 27H133.793V19.08H135.989C136.397 20.304 136.985 21.396 137.753 22.356C138.545 23.292 139.481 24.024 140.561 24.552C141.665 25.056 142.877 25.308 144.197 25.308ZM166.184 25.416C167.264 25.416 168.176 25.224 168.92 24.84C169.688 24.432 170.348 23.94 170.9 23.364C171.452 22.764 171.92 22.176 172.304 21.6L173.816 23.004C173.288 23.796 172.664 24.528 171.944 25.2C171.248 25.872 170.42 26.4 169.46 26.784C168.5 27.168 167.372 27.36 166.076 27.36C164.18 27.36 162.512 26.952 161.072 26.136C159.656 25.32 158.552 24.192 157.76 22.752C156.992 21.312 156.608 19.668 156.608 17.82C156.608 15.924 157.016 14.268 157.832 12.852C158.672 11.436 159.824 10.332 161.288 9.54C162.776 8.724 164.492 8.316 166.436 8.316C167.612 8.316 168.656 8.448 169.568 8.712C170.504 8.976 171.296 9.288 171.944 9.648C172.616 9.984 173.12 10.32 173.456 10.656V15.012H170.288V10.908C170.552 10.956 170.792 11.04 171.008 11.16C171.224 11.256 171.404 11.4 171.548 11.592C171.716 11.784 171.836 12 171.908 12.24C171.98 12.48 171.98 12.744 171.908 13.032C171.5 12.24 170.78 11.58 169.748 11.052C168.74 10.5 167.636 10.224 166.436 10.224C165.02 10.224 163.832 10.548 162.872 11.196C161.912 11.844 161.192 12.744 160.712 13.896C160.232 15.048 159.992 16.356 159.992 17.82C159.992 18.948 160.124 19.98 160.388 20.916C160.676 21.852 161.084 22.656 161.612 23.328C162.14 24 162.788 24.516 163.556 24.876C164.324 25.236 165.2 25.416 166.184 25.416ZM182.553 0.467998V25.092C182.553 25.164 182.685 25.236 182.949 25.308C183.237 25.356 183.585 25.392 183.993 25.416C184.401 25.44 184.785 25.452 185.145 25.452H185.217V27H176.289V25.452H176.361C176.937 25.452 177.441 25.416 177.873 25.344C178.329 25.272 178.689 25.14 178.953 24.948C179.217 24.756 179.349 24.492 179.349 24.156V3.744C179.349 3.384 179.253 3.108 179.061 2.916C178.869 2.724 178.581 2.568 178.197 2.448C177.813 2.328 177.309 2.22 176.685 2.124L176.289 2.052V0.467998H182.553ZM197.313 27H188.421V25.452H188.493C188.829 25.452 189.201 25.44 189.609 25.416C190.017 25.392 190.365 25.356 190.653 25.308C190.965 25.236 191.121 25.164 191.121 25.092V14.436C191.121 13.5 191.025 12.744 190.833 12.168C190.641 11.568 190.317 11.136 189.861 10.872C189.405 10.584 188.793 10.44 188.025 10.44C187.209 10.44 186.441 10.608 185.721 10.944C185.001 11.256 184.329 11.724 183.705 12.348C183.081 12.972 182.481 13.74 181.905 14.652L181.833 12.42C182.481 11.508 183.141 10.752 183.813 10.152C184.485 9.528 185.205 9.072 185.973 8.784C186.741 8.472 187.617 8.316 188.601 8.316C189.753 8.316 190.749 8.52 191.589 8.928C192.453 9.336 193.125 9.972 193.605 10.836C194.085 11.676 194.325 12.768 194.325 14.112V24.156C194.325 24.684 194.601 25.032 195.153 25.2C195.729 25.368 196.425 25.452 197.241 25.452H197.313V27ZM218.537 17.856C218.537 19.704 218.129 21.348 217.313 22.788C216.521 24.228 215.417 25.356 214.001 26.172C212.585 26.964 210.965 27.36 209.141 27.36C207.317 27.36 205.697 26.964 204.281 26.172C202.865 25.356 201.749 24.228 200.933 22.788C200.141 21.348 199.745 19.704 199.745 17.856C199.745 16.44 199.973 15.156 200.429 14.004C200.885 12.828 201.533 11.82 202.373 10.98C203.237 10.14 204.233 9.492 205.361 9.036C206.513 8.556 207.773 8.316 209.141 8.316C210.509 8.316 211.757 8.556 212.885 9.036C214.037 9.492 215.033 10.14 215.873 10.98C216.737 11.82 217.397 12.828 217.853 14.004C218.309 15.156 218.537 16.44 218.537 17.856ZM203.129 17.82C203.129 19.332 203.369 20.664 203.849 21.816C204.353 22.968 205.049 23.856 205.937 24.48C206.849 25.104 207.917 25.416 209.141 25.416C210.413 25.416 211.493 25.104 212.381 24.48C213.269 23.856 213.953 22.98 214.433 21.852C214.913 20.7 215.153 19.356 215.153 17.82C215.153 16.308 214.913 14.988 214.433 13.86C213.953 12.708 213.269 11.82 212.381 11.196C211.493 10.548 210.413 10.224 209.141 10.224C207.917 10.224 206.849 10.548 205.937 11.196C205.049 11.82 204.353 12.708 203.849 13.86C203.369 14.988 203.129 16.308 203.129 17.82ZM240.615 17.856C240.615 19.704 240.207 21.348 239.391 22.788C238.599 24.228 237.495 25.356 236.079 26.172C234.663 26.964 233.043 27.36 231.219 27.36C229.395 27.36 227.775 26.964 226.359 26.172C224.943 25.356 223.827 24.228 223.011 22.788C222.219 21.348 221.823 19.704 221.823 17.856C221.823 16.44 222.051 15.156 222.507 14.004C222.963 12.828 223.611 11.82 224.451 10.98C225.315 10.14 226.311 9.492 227.439 9.036C228.591 8.556 229.851 8.316 231.219 8.316C232.587 8.316 233.835 8.556 234.963 9.036C236.115 9.492 237.111 10.14 237.951 10.98C238.815 11.82 239.475 12.828 239.931 14.004C240.387 15.156 240.615 16.44 240.615 17.856ZM225.207 17.82C225.207 19.332 225.447 20.664 225.927 21.816C226.431 22.968 227.127 23.856 228.015 24.48C228.927 25.104 229.995 25.416 231.219 25.416C232.491 25.416 233.571 25.104 234.459 24.48C235.347 23.856 236.031 22.98 236.511 21.852C236.991 20.7 237.231 19.356 237.231 17.82C237.231 16.308 236.991 14.988 236.511 13.86C236.031 12.708 235.347 11.82 234.459 11.196C233.571 10.548 232.491 10.224 231.219 10.224C229.995 10.224 228.927 10.548 228.015 11.196C227.127 11.82 226.431 12.708 225.927 13.86C225.447 14.988 225.207 16.308 225.207 17.82ZM249.662 0.467998V24.156C249.662 24.684 249.938 25.032 250.49 25.2C251.042 25.368 251.738 25.452 252.578 25.452H252.65V27H243.47V25.452H243.542C244.382 25.452 245.078 25.368 245.63 25.2C246.182 25.032 246.458 24.684 246.458 24.156V3.744C246.458 3.384 246.362 3.108 246.17 2.916C245.978 2.724 245.69 2.568 245.306 2.448C244.946 2.328 244.454 2.22 243.83 2.124L243.434 2.052V0.467998H249.662Z" fill="white"/>
</svg>
