<svg width="44" height="44" viewBox="0 0 44 44" fill="none" xmlns="http://www.w3.org/2000/svg">
<circle cx="22" cy="22" r="22" fill="#D9D9D9"/>
<g clip-path="url(#clip0_8_31)">
<path d="M22 9C18.4721 9 18.0285 9.01625 16.6424 9.078C15.2562 9.143 14.3121 9.36075 13.485 9.6825C12.6174 10.0088 11.8315 10.5207 11.1824 11.1824C10.5211 11.8319 10.0093 12.6176 9.6825 13.485C9.36075 14.3105 9.14138 15.2562 9.078 16.6375C9.01625 18.0269 9 18.4689 9 22.0016C9 25.5311 9.01625 25.9731 9.078 27.3593C9.143 28.7437 9.36075 29.6879 9.6825 30.515C10.0156 31.3697 10.4593 32.0945 11.1824 32.8176C11.9039 33.5407 12.6286 33.986 13.4834 34.3175C14.3121 34.6392 15.2546 34.8586 16.6391 34.922C18.0269 34.9837 18.4689 35 22 35C25.5311 35 25.9715 34.9837 27.3593 34.922C28.7421 34.857 29.6895 34.6392 30.5166 34.3175C31.3837 33.991 32.169 33.4791 32.8176 32.8176C33.5407 32.0945 33.9844 31.3697 34.3175 30.515C34.6376 29.6879 34.857 28.7437 34.922 27.3593C34.9837 25.9731 35 25.5311 35 22C35 18.4689 34.9837 18.0269 34.922 16.6391C34.857 15.2563 34.6376 14.3105 34.3175 13.485C33.9907 12.6176 33.4789 11.8318 32.8176 11.1824C32.1687 10.5205 31.3827 10.0085 30.515 9.6825C29.6862 9.36075 28.7405 9.14138 27.3576 9.078C25.9699 9.01625 25.5295 9 21.9967 9H22.0016H22ZM20.8349 11.3433H22.0016C25.4726 11.3433 25.8837 11.3546 27.2536 11.418C28.5211 11.4749 29.2101 11.6878 29.6684 11.8649C30.2745 12.1005 30.7084 12.3832 31.1634 12.8382C31.6184 13.2933 31.8995 13.7255 32.1351 14.3333C32.3139 14.7899 32.5251 15.4789 32.582 16.7464C32.6454 18.1163 32.6584 18.5274 32.6584 21.9967C32.6584 25.4661 32.6454 25.8789 32.582 27.2487C32.5251 28.5162 32.3123 29.2036 32.1351 29.6619C31.9267 30.2263 31.594 30.7367 31.1617 31.1553C30.7067 31.6103 30.2745 31.8914 29.6667 32.127C29.2118 32.3057 28.5227 32.517 27.2536 32.5755C25.8837 32.6373 25.4726 32.6519 22.0016 32.6519C18.5306 32.6519 18.1179 32.6373 16.748 32.5755C15.4805 32.517 14.7931 32.3057 14.3349 32.127C13.7702 31.9189 13.2593 31.5868 12.8399 31.1553C12.4072 30.7361 12.074 30.2252 11.8649 29.6602C11.6878 29.2036 11.4749 28.5146 11.418 27.2471C11.3563 25.8773 11.3433 25.4661 11.3433 21.9935C11.3433 18.5225 11.3563 18.113 11.418 16.7431C11.4765 15.4756 11.6878 14.7866 11.8665 14.3284C12.1021 13.7222 12.3849 13.2884 12.8399 12.8334C13.2949 12.3784 13.7271 12.0972 14.3349 11.8616C14.7931 11.6829 15.4805 11.4716 16.748 11.4131C17.9473 11.3579 18.412 11.3416 20.8349 11.34V11.3433ZM28.9404 13.5012C28.7355 13.5012 28.5327 13.5416 28.3434 13.62C28.1541 13.6984 27.9821 13.8133 27.8373 13.9582C27.6924 14.103 27.5775 14.275 27.4991 14.4643C27.4207 14.6535 27.3804 14.8564 27.3804 15.0613C27.3804 15.2661 27.4207 15.469 27.4991 15.6582C27.5775 15.8475 27.6924 16.0195 27.8373 16.1643C27.9821 16.3092 28.1541 16.4241 28.3434 16.5025C28.5327 16.5809 28.7355 16.6213 28.9404 16.6213C29.3541 16.6213 29.7509 16.4569 30.0435 16.1643C30.336 15.8718 30.5004 15.475 30.5004 15.0613C30.5004 14.6475 30.336 14.2507 30.0435 13.9582C29.7509 13.6656 29.3541 13.5012 28.9404 13.5012ZM22.0016 15.3245C21.1161 15.3107 20.2367 15.4732 19.4146 15.8025C18.5925 16.1318 17.8441 16.6214 17.213 17.2427C16.5819 17.864 16.0807 18.6047 15.7386 19.4215C15.3965 20.2384 15.2203 21.1152 15.2203 22.0008C15.2203 22.8864 15.3965 23.7632 15.7386 24.5801C16.0807 25.397 16.5819 26.1376 17.213 26.7589C17.8441 27.3803 18.5925 27.8698 19.4146 28.1991C20.2367 28.5285 21.1161 28.6909 22.0016 28.6771C23.7543 28.6498 25.4258 27.9344 26.6556 26.6853C27.8853 25.4362 28.5746 23.7537 28.5746 22.0008C28.5746 20.248 27.8853 18.5654 26.6556 17.3163C25.4258 16.0673 23.7543 15.3518 22.0016 15.3245ZM22.0016 17.6661C23.151 17.6661 24.2534 18.1227 25.0661 18.9355C25.8789 19.7482 26.3355 20.8506 26.3355 22C26.3355 23.1494 25.8789 24.2518 25.0661 25.0645C24.2534 25.8773 23.151 26.3339 22.0016 26.3339C20.8522 26.3339 19.7499 25.8773 18.9371 25.0645C18.1244 24.2518 17.6678 23.1494 17.6678 22C17.6678 20.8506 18.1244 19.7482 18.9371 18.9355C19.7499 18.1227 20.8522 17.6661 22.0016 17.6661Z" fill="#616161"/>
</g>
<defs>
<clipPath id="clip0_8_31">
<rect width="26" height="26" fill="white" transform="translate(9 9)"/>
</clipPath>
</defs>
</svg>
