<svg width="44" height="44" viewBox="0 0 44 44" fill="none" xmlns="http://www.w3.org/2000/svg">
<g clip-path="url(#clip0_8_39)" filter="url(#filter0_b_8_39)">
<path d="M31.5508 30.2499C31.2414 27.4618 29.9939 24.8615 28.0128 22.8754C26.0317 20.8893 23.4346 19.6352 20.6473 19.3188C17.8599 19.0023 15.0478 19.6423 12.6719 21.1337C10.296 22.6252 8.49731 24.8796 7.57076 27.5274C5.4476 27.7012 3.47395 28.6895 2.06296 30.2855C0.651971 31.8814 -0.0869817 33.9613 0.000786035 36.0898C0.0885537 38.2183 0.996237 40.2303 2.53384 41.7046C4.07143 43.179 6.11975 44.0015 8.25001 43.9999H31.625C33.4484 43.9999 35.1971 43.2756 36.4864 41.9863C37.7757 40.6969 38.5 38.9483 38.5 37.1249C38.5 35.3015 37.7757 33.5528 36.4864 32.2635C35.1971 30.9742 33.4484 30.2499 31.625 30.2499H31.5508Z" fill="#D4D3D3"/>
<path d="M28.875 4.125C28.875 3.76033 28.7301 3.41059 28.4723 3.15273C28.2144 2.89487 27.8647 2.75 27.5 2.75C27.1353 2.75 26.7856 2.89487 26.5277 3.15273C26.2699 3.41059 26.125 3.76033 26.125 4.125V6.875C26.125 7.23967 26.2699 7.58941 26.5277 7.84727C26.7856 8.10513 27.1353 8.25 27.5 8.25C27.8647 8.25 28.2144 8.10513 28.4723 7.84727C28.7301 7.58941 28.875 7.23967 28.875 6.875V4.125ZM39.1682 9.526C39.2996 9.39916 39.4043 9.24744 39.4764 9.07968C39.5485 8.91193 39.5864 8.7315 39.588 8.54893C39.5896 8.36635 39.5548 8.1853 39.4856 8.01631C39.4165 7.84733 39.3144 7.69381 39.1853 7.56471C39.0562 7.4356 38.9027 7.33351 38.7337 7.26437C38.5647 7.19523 38.3836 7.16044 38.2011 7.16203C38.0185 7.16362 37.8381 7.20155 37.6703 7.27361C37.5026 7.34567 37.3508 7.45042 37.224 7.58175L35.277 9.526C35.0188 9.78419 34.8738 10.1344 34.8738 10.4995C34.8738 10.8646 35.0188 11.2148 35.277 11.473C35.5352 11.7312 35.8854 11.8762 36.2505 11.8762C36.6156 11.8762 36.9658 11.7312 37.224 11.473L39.1682 9.526ZM17.776 7.58175C17.5167 7.33128 17.1693 7.19269 16.8088 7.19582C16.4483 7.19896 16.1034 7.34356 15.8485 7.5985C15.5936 7.85344 15.449 8.1983 15.4458 8.55882C15.4427 8.91934 15.5813 9.26667 15.8317 9.526L17.776 11.473C17.9038 11.6008 18.0556 11.7023 18.2226 11.7714C18.3897 11.8406 18.5687 11.8762 18.7495 11.8762C18.9303 11.8762 19.1093 11.8406 19.2764 11.7714C19.4434 11.7023 19.5952 11.6008 19.723 11.473C19.8508 11.3452 19.9523 11.1934 20.0214 11.0264C20.0906 10.8593 20.1262 10.6803 20.1262 10.4995C20.1262 10.3187 20.0906 10.1397 20.0214 9.97265C19.9523 9.80561 19.8508 9.65384 19.723 9.526L17.776 7.58175ZM22.5445 16.8603C22.8863 16.152 23.376 15.5252 23.9806 15.0223C24.5852 14.5193 25.2906 14.1519 26.0493 13.9447C26.808 13.7376 27.6023 13.6956 28.3786 13.8215C29.1549 13.9474 29.8951 14.2384 30.5494 14.6747C31.2037 15.111 31.7568 15.6826 32.1715 16.3509C32.5861 17.0191 32.8526 17.7686 32.953 18.5486C33.0533 19.3286 32.9853 20.121 32.7533 20.8725C32.5214 21.624 32.131 22.317 31.6085 22.9048C32.1558 23.6775 32.6315 24.5053 33.0275 25.3743C33.9595 24.5322 34.6868 23.4885 35.1542 22.3226C35.6216 21.1568 35.8166 19.8996 35.7243 18.647C35.6321 17.3944 35.2551 16.1793 34.622 15.0945C33.9889 14.0097 33.1165 13.0838 32.0713 12.3873C31.026 11.6908 29.8355 11.2422 28.5906 11.0757C27.3457 10.9091 26.0792 11.029 24.8876 11.4262C23.696 11.8234 22.6109 12.4875 21.7149 13.3677C20.8189 14.248 20.1358 15.3212 19.7175 16.5055C20.6855 16.5357 21.6315 16.6567 22.5445 16.8603ZM34.8755 28.0637C36.5255 28.655 37.9693 29.6863 39.061 31.0118C39.2107 30.8905 39.3333 30.7392 39.4207 30.5675C39.5082 30.3959 39.5586 30.2078 39.5688 30.0154C39.5789 29.823 39.5484 29.6306 39.4794 29.4508C39.4105 29.2709 39.3044 29.1075 39.1682 28.9712L37.224 27.027C37.028 26.8298 36.7768 26.6967 36.5036 26.6452C36.2303 26.5937 35.9479 26.6262 35.6936 26.7385C35.4392 26.8508 35.2249 27.0375 35.0788 27.2741C34.9328 27.5107 34.8619 27.786 34.8755 28.0637ZM39.875 17.875C39.5103 17.875 39.1606 18.0199 38.9027 18.2777C38.6449 18.5356 38.5 18.8853 38.5 19.25C38.5 19.6147 38.6449 19.9644 38.9027 20.2223C39.1606 20.4801 39.5103 20.625 39.875 20.625H42.625C42.9897 20.625 43.3394 20.4801 43.5973 20.2223C43.8551 19.9644 44 19.6147 44 19.25C44 18.8853 43.8551 18.5356 43.5973 18.2777C43.3394 18.0199 42.9897 17.875 42.625 17.875H39.875Z" fill="#E2CC80"/>
</g>
<defs>
<filter id="filter0_b_8_39" x="-4" y="-4" width="52" height="52" filterUnits="userSpaceOnUse" color-interpolation-filters="sRGB">
<feFlood flood-opacity="0" result="BackgroundImageFix"/>
<feGaussianBlur in="BackgroundImageFix" stdDeviation="2"/>
<feComposite in2="SourceAlpha" operator="in" result="effect1_backgroundBlur_8_39"/>
<feBlend mode="normal" in="SourceGraphic" in2="effect1_backgroundBlur_8_39" result="shape"/>
</filter>
<clipPath id="clip0_8_39">
<rect width="44" height="44" fill="white"/>
</clipPath>
</defs>
</svg>
