<svg width="44" height="44" viewBox="0 0 44 44" fill="none" xmlns="http://www.w3.org/2000/svg">
<circle cx="22" cy="22" r="22" fill="#D9D9D9"/>
<g clip-path="url(#clip0_8_35)">
<path d="M17.1672 34.1261C26.979 34.1261 32.3464 25.9963 32.3464 18.9584C32.3464 18.7309 32.3464 18.5001 32.3366 18.2726C33.3816 17.5162 34.2835 16.5796 35 15.5069C34.0239 15.9373 32.9895 16.2209 31.9304 16.3486C33.046 15.6818 33.8815 14.6326 34.2817 13.396C33.2336 14.017 32.0864 14.4529 30.8904 14.6846C30.0863 13.8283 29.0223 13.261 27.8631 13.0706C26.704 12.8802 25.5144 13.0774 24.4787 13.6315C23.4429 14.1857 22.6188 15.0659 22.134 16.1358C21.6492 17.2058 21.5307 18.4058 21.7969 19.5499C19.6758 19.4435 17.6008 18.8925 15.7064 17.9326C13.8121 16.9727 12.1406 15.6252 10.8005 13.9778C10.1202 15.1528 9.91256 16.5427 10.2198 17.8652C10.527 19.1877 11.3261 20.3437 12.4547 21.0985C11.609 21.0698 10.7818 20.8427 10.04 20.4355V20.5086C10.0415 21.7395 10.4679 22.9322 11.2472 23.885C12.0265 24.8378 13.1108 25.4923 14.317 25.7379C13.8592 25.864 13.3862 25.9269 12.9114 25.9248C12.5766 25.9258 12.2425 25.8948 11.9136 25.8321C12.2545 26.8917 12.9183 27.8181 13.812 28.4817C14.7057 29.1452 15.7846 29.5125 16.8975 29.5323C15.0069 31.0172 12.6715 31.8225 10.2675 31.8186C9.8439 31.8204 9.42059 31.796 9 31.7455C11.44 33.3011 14.2736 34.127 17.1672 34.1261Z" fill="#616161"/>
</g>
<defs>
<clipPath id="clip0_8_35">
<rect width="26" height="26" fill="white" transform="translate(9 8)"/>
</clipPath>
</defs>
</svg>
