<svg width="44" height="44" viewBox="0 0 44 44" fill="none" xmlns="http://www.w3.org/2000/svg">
<circle cx="22" cy="22" r="22" fill="#D9D9D9"/>
<g clip-path="url(#clip0_8_27)">
<path d="M30.9581 12.6958C29.7739 11.5195 28.3636 10.587 26.8095 9.95247C25.2553 9.31796 23.5884 8.99421 21.9059 9.00008C14.8556 9.00008 9.10978 14.6533 9.10332 21.5936C9.10332 23.8165 9.69421 25.9789 10.8098 27.8936L9 34.4223L15.7871 32.6713C17.6648 33.677 19.7683 34.2041 21.9059 34.2046H21.9124C28.9643 34.2046 34.7085 28.5514 34.7149 21.6047C34.7165 19.9492 34.3853 18.3097 33.7402 16.7807C33.0952 15.2517 32.1507 13.8634 30.9581 12.6958ZM21.9059 32.0723C19.9992 32.073 18.1276 31.568 16.4878 30.6106L16.1003 30.3818L12.0739 31.4209L13.1491 27.5551L12.8973 27.1563C11.8314 25.4885 11.2677 23.5575 11.2715 21.5873C11.2715 15.8259 16.0455 11.126 21.9124 11.126C23.31 11.1235 24.6944 11.3934 25.9856 11.92C27.2769 12.4466 28.4494 13.2195 29.4357 14.1942C30.4254 15.165 31.21 16.3192 31.7442 17.59C32.2785 18.8608 32.5517 20.2231 32.5483 21.5984C32.5419 27.3803 27.768 32.0723 21.9059 32.0723ZM27.7421 24.2328C27.4241 24.0755 25.8532 23.3144 25.5578 23.2063C25.2639 23.1031 25.0492 23.049 24.8393 23.3636C24.6246 23.6766 24.0111 24.3901 23.8271 24.595C23.643 24.8063 23.4525 24.8302 23.1329 24.6745C22.8148 24.5156 21.7832 24.1851 20.5627 23.1094C19.6102 22.2752 18.9724 21.2425 18.7819 20.9295C18.5979 20.6149 18.7642 20.4464 18.924 20.2891C19.0645 20.1493 19.2421 19.9205 19.4019 19.7394C19.5633 19.5582 19.6166 19.4248 19.7215 19.215C19.8265 19.0021 19.7764 18.821 19.6973 18.6637C19.6166 18.5064 18.9789 16.9541 18.7093 16.328C18.451 15.71 18.1878 15.7958 17.9909 15.7878C17.8068 15.7767 17.5921 15.7767 17.3774 15.7767C17.2152 15.7807 17.0557 15.8176 16.9087 15.8851C16.7617 15.9526 16.6305 16.0493 16.5233 16.1691C16.2295 16.4837 15.4077 17.2448 15.4077 18.7972C15.4077 20.3495 16.554 21.8415 16.7154 22.0528C16.8737 22.2641 18.966 25.4403 22.1771 26.8068C22.9359 27.1325 23.5333 27.3247 23.9998 27.4709C24.7667 27.7124 25.4593 27.6759 26.0114 27.598C26.6249 27.5059 27.902 26.8354 28.1716 26.0997C28.4363 25.3625 28.4363 24.7333 28.3556 24.6014C28.2765 24.4679 28.0618 24.3901 27.7421 24.2328Z" fill="#616161"/>
</g>
<defs>
<clipPath id="clip0_8_27">
<rect width="26" height="26" fill="white" transform="translate(9 9)"/>
</clipPath>
</defs>
</svg>
