<svg width="310" height="68" viewBox="0 0 310 68" fill="none" xmlns="http://www.w3.org/2000/svg">
<path d="M27.8 35.65C27.8 37.61 27.45 39.4533 26.75 41.18C26.0967 42.9067 25.1633 44.4233 23.95 45.73C22.7833 46.99 21.3833 48.0167 19.75 48.81C18.1167 49.5567 16.3667 49.93 14.5 49.93C12.68 49.93 10.9067 49.6967 9.18 49.23C7.45333 48.7633 5.91333 48.25 4.56 47.69C2.97333 47.0367 1.45667 46.2667 0.0100001 45.38L1.41 41.53C2.99667 42.37 4.56 43.0933 6.1 43.7C7.45333 44.2133 8.87667 44.7033 10.37 45.17C11.8633 45.59 13.2167 45.8 14.43 45.8C15.7367 45.8 16.95 45.5433 18.07 45.03C19.2367 44.5167 20.24 43.8167 21.08 42.93C21.92 41.9967 22.5733 40.9233 23.04 39.71C23.5067 38.4967 23.74 37.19 23.74 35.79C23.74 34.3433 23.4133 33.1533 22.76 32.22C22.1067 31.24 21.2667 30.4467 20.24 29.84C19.26 29.1867 18.1633 28.6967 16.95 28.37C15.7367 27.9967 14.5467 27.7167 13.38 27.53C11.6533 27.25 10.02 26.76 8.48 26.06C6.98667 25.36 5.65667 24.45 4.49 23.33C3.37 22.21 2.48333 20.9033 1.83 19.41C1.17667 17.9167 0.85 16.2367 0.85 14.37C0.85 12.4567 1.17667 10.66 1.83 8.98C2.53 7.25333 3.46333 5.76 4.63 4.5C5.84333 3.19333 7.24333 2.16666 8.83 1.42C10.4167 0.673331 12.0967 0.299997 13.87 0.299997C14.99 0.299997 16.1333 0.439997 17.3 0.719996C18.5133 0.953329 19.6333 1.21 20.66 1.49C21.8267 1.86333 22.97 2.26 24.09 2.68L22.76 6.6C21.7333 6.18 20.6833 5.80667 19.61 5.48C18.6767 5.2 17.6967 4.94333 16.67 4.71C15.6433 4.47667 14.6633 4.36 13.73 4.36C12.47 4.36 11.28 4.64 10.16 5.2C9.08667 5.71333 8.15333 6.43667 7.36 7.37C6.56667 8.25666 5.93667 9.30666 5.47 10.52C5.00333 11.6867 4.77 12.9 4.77 14.16C4.77 15.6067 5.05 16.89 5.61 18.01C6.21667 19.0833 6.96333 19.9933 7.85 20.74C8.78333 21.4867 9.81 22.0933 10.93 22.56C12.05 22.98 13.1233 23.2833 14.15 23.47C16.0633 23.7967 17.8367 24.2633 19.47 24.87C21.15 25.4767 22.5967 26.27 23.81 27.25C25.07 28.1833 26.05 29.35 26.75 30.75C27.45 32.15 27.8 33.7833 27.8 35.65ZM47.5258 50L40.0358 33.27H37.7258V50H34.1558V0.999997H37.7258V29H39.9658L47.4558 15.07H51.4458L42.8358 31.24L51.5158 50H47.5258ZM58.4447 44.82C57.8847 43.6533 57.558 42.4867 57.4647 41.32C57.3714 40.1067 57.3247 38.87 57.3247 37.61V15H60.9647V39.78C60.9647 40.9933 61.128 42.0667 61.4547 43C61.828 43.8867 62.2947 44.6333 62.8547 45.24C63.4614 45.8467 64.138 46.3133 64.8847 46.64C65.6314 46.9667 66.4014 47.13 67.1947 47.13C68.688 47.13 70.1814 46.8733 71.6747 46.36C73.2147 45.8 74.4047 45.2167 75.2447 44.61V15H78.8147V46.5L80.3547 47.97L77.8347 50.49L75.7347 48.39C74.3814 49.1367 72.9347 49.6733 71.3947 50C69.8547 50.3733 68.478 50.56 67.2647 50.56C65.5847 50.56 63.928 50.14 62.2947 49.3C60.6614 48.4133 59.378 46.92 58.4447 44.82ZM108.19 20.11C108.75 21.2767 109.076 22.4667 109.17 23.68C109.263 24.8467 109.31 26.06 109.31 27.32V50H105.6V25.15C105.6 22.77 104.97 20.95 103.71 19.69C102.45 18.43 101.026 17.8 99.4395 17.8C98.5529 17.8 97.4095 17.94 96.0095 18.22C94.6562 18.5 93.1162 19.2 91.3895 20.32V50H87.8195V18.43L86.2795 16.96L88.7995 14.44L90.8995 16.54C93.4662 15.0933 95.8929 14.37 98.1795 14.37C100.28 14.37 102.24 14.8133 104.06 15.7C105.88 16.54 107.256 18.01 108.19 20.11ZM121.534 44.47C121.674 44.89 122.094 45.2633 122.794 45.59C123.494 45.87 124.264 46.1267 125.104 46.36C125.991 46.5467 126.854 46.71 127.694 46.85C128.534 46.9433 129.164 46.99 129.584 46.99C130.378 46.99 131.124 46.8267 131.824 46.5C132.524 46.1733 133.131 45.7533 133.644 45.24C134.158 44.68 134.554 44.05 134.834 43.35C135.161 42.6033 135.324 41.81 135.324 40.97V23.96C135.324 22.28 134.764 20.8567 133.644 19.69C132.524 18.4767 131.148 17.87 129.514 17.87C129.094 17.87 128.534 17.9167 127.834 18.01C127.181 18.1033 126.481 18.2667 125.734 18.5C124.988 18.6867 124.241 18.9433 123.494 19.27C122.748 19.55 122.094 19.9 121.534 20.32V44.47ZM121.464 16.26C123.331 15.28 124.941 14.72 126.294 14.58C127.648 14.3933 128.721 14.3 129.514 14.3C130.821 14.3 132.034 14.5567 133.154 15.07C134.274 15.5833 135.254 16.3067 136.094 17.24C136.934 18.1267 137.588 19.1767 138.054 20.39C138.568 21.5567 138.824 22.8167 138.824 24.17V40.69C138.824 42.0433 138.568 43.3267 138.054 44.54C137.588 45.7533 136.934 46.8033 136.094 47.69C135.254 48.5767 134.274 49.2767 133.154 49.79C132.034 50.3033 130.821 50.56 129.514 50.56C128.488 50.56 127.181 50.3967 125.594 50.07C124.054 49.79 122.514 49.23 120.974 48.39L119.084 50.21L116.634 47.76L117.964 46.36V0.999997H121.464V16.26ZM151.212 67.5L154.082 50H153.592L144.282 15H147.852C149.066 20.1333 150.139 24.4967 151.072 28.09C152.052 31.6367 152.869 34.5533 153.522 36.84C154.269 39.5 154.899 41.6933 155.412 43.42H156.252C156.672 41.6933 157.232 39.5 157.932 36.84C158.539 34.5533 159.309 31.6367 160.242 28.09C161.222 24.4967 162.436 20.1333 163.882 15H167.452L158.072 50H157.652L154.782 67.5H151.212ZM202.312 0.999997V50H195.522L178.862 9.26H178.022V50H174.452V0.999997H179.492L197.762 45.17H198.672V0.999997H202.312ZM223.502 33.13H223.642C224.482 33.13 225.252 32.9667 225.952 32.64C226.652 32.2667 227.259 31.8 227.772 31.24C228.285 30.6333 228.682 29.9567 228.962 29.21C229.289 28.4633 229.452 27.67 229.452 26.83V23.89C229.452 22.77 229.242 21.8367 228.822 21.09C228.402 20.2967 227.842 19.6667 227.142 19.2C226.489 18.7333 225.695 18.4067 224.762 18.22C223.875 17.9867 222.942 17.87 221.962 17.87C221.075 17.87 220.212 18.01 219.372 18.29C218.579 18.57 217.879 18.9667 217.272 19.48C216.665 19.9933 216.175 20.6233 215.802 21.37C215.429 22.1167 215.242 22.9567 215.242 23.89V33.06L223.502 33.13ZM211.602 24.24C211.602 22.84 211.835 21.5333 212.302 20.32C212.815 19.1067 213.492 18.0567 214.332 17.17C215.219 16.2833 216.222 15.5833 217.342 15.07C218.509 14.5567 219.769 14.3 221.122 14.3H223.502C224.809 14.3 226.045 14.5567 227.212 15.07C228.379 15.5833 229.405 16.2833 230.292 17.17C231.179 18.0567 231.855 19.1067 232.322 20.32C232.835 21.5333 233.092 22.84 233.092 24.24V26.55C233.092 28.51 232.742 30.1667 232.042 31.52C231.342 32.8267 230.385 33.9 229.172 34.74C227.959 35.58 226.535 36.1867 224.902 36.56C223.315 36.8867 221.612 37.05 219.792 37.05C219.045 37.05 218.299 37.0267 217.552 36.98C216.805 36.9333 216.035 36.8633 215.242 36.77V40.97C215.569 42.8367 216.432 44.33 217.832 45.45C219.279 46.5233 220.912 47.06 222.732 47.06C222.919 47.06 223.502 46.9667 224.482 46.78C225.509 46.5467 226.582 46.3133 227.702 46.08C229.009 45.8 230.455 45.4733 232.042 45.1L232.882 48.81C231.155 49.1833 229.592 49.4867 228.192 49.72C226.979 49.9533 225.812 50.1633 224.692 50.35C223.619 50.5367 222.965 50.63 222.732 50.63C221.239 50.63 219.815 50.3733 218.462 49.86C217.109 49.3 215.919 48.53 214.892 47.55C213.865 46.57 213.049 45.4267 212.442 44.12C211.882 42.7667 211.602 41.2967 211.602 39.71V24.24ZM257.888 15.07L262.998 45.45H263.558L267.968 15H271.468L265.868 50H260.688L255.228 19.48H254.458L248.998 50H243.888L238.288 15H241.788L245.988 45.38H246.618L251.798 15.07H257.888ZM284.924 0.789999C284.504 2.42333 283.967 4.19666 283.314 6.11C282.66 8.02333 281.937 9.93667 281.144 11.85C280.397 13.7167 279.65 15.49 278.904 17.17H274.354C274.68 15.8633 275.007 14.4633 275.334 12.97C275.707 11.4767 276.034 9.98333 276.314 8.49C276.64 6.95 276.92 5.45666 277.154 4.01C277.434 2.56333 277.667 1.23333 277.854 0.0199968H284.434L284.924 0.789999ZM309.27 40.34C309.27 43.7933 308.407 46.3833 306.68 48.11C304.953 49.8367 302.737 50.7 300.03 50.7C299.19 50.7 298.327 50.63 297.44 50.49C296.553 50.35 295.667 50.0933 294.78 49.72L288.97 47.41L290.37 44.33L296.11 46.64C296.81 46.92 297.487 47.13 298.14 47.27C298.84 47.3633 299.493 47.41 300.1 47.41C301.733 47.41 303.11 46.78 304.23 45.52C305.35 44.26 305.91 42.44 305.91 40.06C305.91 39.08 305.7 38.24 305.28 37.54C304.907 36.84 304.417 36.28 303.81 35.86C303.25 35.3933 302.597 35.0667 301.85 34.88C301.15 34.6467 300.497 34.53 299.89 34.53C298.21 34.53 296.693 34.39 295.34 34.11C293.987 33.7833 292.82 33.2467 291.84 32.5C290.907 31.7067 290.183 30.68 289.67 29.42C289.157 28.16 288.9 26.5733 288.9 24.66C288.9 21.2533 289.81 18.6867 291.63 16.96C293.497 15.1867 295.783 14.3 298.49 14.3C299.283 14.3 300.1 14.4167 300.94 14.65C301.827 14.8367 302.737 15.0933 303.67 15.42L305.98 16.26L304.65 19.27C303.53 18.85 302.62 18.5467 301.92 18.36C301.267 18.1267 300.73 17.9633 300.31 17.87C299.937 17.7767 299.633 17.73 299.4 17.73C299.213 17.6833 299.003 17.66 298.77 17.66H298.42C296.787 17.66 295.34 18.3133 294.08 19.62C292.867 20.88 292.26 22.6767 292.26 25.01C292.26 25.99 292.47 26.8533 292.89 27.6C293.31 28.3467 293.847 29 294.5 29.56C295.153 30.0733 295.83 30.47 296.53 30.75C297.277 30.9833 297.977 31.1 298.63 31.1C300.077 31.1 301.453 31.24 302.76 31.52C304.067 31.7533 305.187 32.22 306.12 32.92C307.1 33.5733 307.87 34.5067 308.43 35.72C308.99 36.9333 309.27 38.4733 309.27 40.34Z" fill="black"/>
</svg>
